<?xml version="1.0" encoding="UTF-8" standalone="no"?>
<!-- Created with Inkscape (http://www.inkscape.org/) -->

<svg
   xmlns:dc="http://purl.org/dc/elements/1.1/"
   xmlns:cc="http://creativecommons.org/ns#"
   xmlns:rdf="http://www.w3.org/1999/02/22-rdf-syntax-ns#"
   xmlns:svg="http://www.w3.org/2000/svg"
   xmlns="http://www.w3.org/2000/svg"
   xmlns:sodipodi="http://sodipodi.sourceforge.net/DTD/sodipodi-0.dtd"
   xmlns:inkscape="http://www.inkscape.org/namespaces/inkscape"
   id="svg4155"
   version="1.1"
   inkscape:version="0.92.4 (5da689c313, 2019-01-14)"
   xml:space="preserve"
   width="159.53999"
   height="247.5"
   viewBox="0 0 159.53999 247.5"
   sodipodi:docname="MC.svg"><metadata
     id="metadata4161"><rdf:RDF><cc:Work
         rdf:about=""><dc:format>image/svg+xml</dc:format><dc:type
           rdf:resource="http://purl.org/dc/dcmitype/StillImage" /><dc:title></dc:title></cc:Work></rdf:RDF></metadata><defs
     id="defs4159" /><sodipodi:namedview
     pagecolor="#ffffff"
     bordercolor="#666666"
     borderopacity="1"
     objecttolerance="10"
     gridtolerance="10"
     guidetolerance="10"
     inkscape:pageopacity="0"
     inkscape:pageshadow="2"
     inkscape:window-width="1385"
     inkscape:window-height="795"
     id="namedview4157"
     showgrid="false"
     inkscape:zoom="0.5332279"
     inkscape:cx="167.84568"
     inkscape:cy="238.14761"
     inkscape:window-x="0"
     inkscape:window-y="0"
     inkscape:window-maximized="0"
     inkscape:current-layer="g4163"
     fit-margin-top="0"
     fit-margin-left="0"
     fit-margin-right="0"
     fit-margin-bottom="0" /><g
     id="g4163"
     inkscape:groupmode="layer"
     inkscape:label="ink_ext_XXXXXX"
     transform="matrix(1.25,0,0,-1.25,0,247.5)"><path
       inkscape:connector-curvature="0"
       id="path4227"
       style="fill:#0377af;fill-opacity:1;fill-rule:nonzero;stroke:none;stroke-width:0.1"
       d="M 127.632,71.2121 V 173.823 H 84.9684 c 0.516,-0.852 1.0316,-1.767 1.4961,-2.748 H 124.879 V 71.1648 c 0,-0.1339 0,-0.3058 0,-0.541 -0.072,-2.5679 -0.093,-11.2816 -4.767,-18.95 -2.135,-3.4437 -6.824,-10.7929 -15.3,-19.559 C 96.3203,23.323 83.9723,13.0359 66.3727,3.37109 L 65.2305,2.73711 H 62.4063 L 61.2566,3.37109 C 43.6617,13.0359 31.318,23.323 22.8277,32.1148 14.3438,40.8809 9.66992,48.2301 7.51836,51.6738 2.85273,59.3531 2.82305,68.0559 2.76133,70.6148 c 0,0.2653 0,0.4622 0,0.5864 V 171.075 H 41.9355 c 0.0739,0.154 0.1504,0.308 0.2293,0.454 0.3758,0.757 0.82,1.524 1.3,2.294 H 0.0113281 V 71.266 C 0.00546875,71.1148 0,70.8922 0,70.6148 V 70.5422 C 0.1,67.9789 0.0464844,58.6871 5.17031,50.2371 7.36563,46.725 12.193,39.159 20.8512,30.2051 29.5176,21.241 42.0961,10.766 59.9355,0.976172 L 61.7008,0 h 4.234 l 1.7629,0.976172 C 85.5398,10.766 98.1145,21.241 106.79,30.2051 c 8.655,8.9539 13.475,16.5199 15.656,20.0129 5.14,8.4691 5.092,17.7609 5.186,20.3242 v 0.0918 c 0,0.2461 0,0.443 0,0.5781" /><path
       inkscape:connector-curvature="0"
       id="path4229"
       style="fill:#ffffff;fill-opacity:1;fill-rule:nonzero;stroke:none;stroke-width:0.1"
       d="M 41.9355,171.075 H 2.76133 V 71.2012 c 0,-0.1242 0,-0.3211 0,-0.5864 C 2.82305,68.0559 2.85273,59.3531 7.51836,51.6738 9.66992,48.2301 14.3438,40.8809 22.8277,32.1148 31.318,23.323 43.6617,13.0359 61.2566,3.37109 l 1.1497,-0.63398 h 2.8242 l 1.1422,0.63398 C 83.9723,13.0359 96.3203,23.323 104.812,32.1148 c 8.476,8.7661 13.165,16.1153 15.3,19.559 4.674,7.6684 4.695,16.3821 4.767,18.95 0,0.2352 0,0.4071 0,0.541 V 171.075 H 86.4645 c -0.4645,0.981 -0.9801,1.896 -1.4961,2.748 -2.084,3.423 -4.5059,5.941 -6.8352,7.693 -2.0609,1.568 -3.9891,2.554 -5.5269,3.177 0,0.94 0,1.9 0,2.523 0.0207,1.288 -0.5,2.568 -1.1594,3.389 -0.3317,0.414 -0.6539,0.733 -0.9801,0.986 v 0.602 c -0.0281,0.47 -0.0281,1.637 -0.9863,3.136 -0.4856,0.732 -1.2563,1.471 -2.2422,1.955 -0.9754,0.498 -2.0852,0.716 -3.1953,0.716 -1.0989,0 -2.2071,-0.218 -3.1852,-0.716 -1.484,-0.727 -2.4238,-2.038 -2.7996,-3.007 -0.3883,-0.991 -0.4082,-1.707 -0.4191,-2.024 v -0.748 c -0.4594,-0.362 -0.8524,-0.764 -1.1618,-1.203 -0.871,-1.179 -1.0703,-2.427 -1.055,-3.07 0,0 0,0 0,-0.016 v -2.712 c -5.6696,-2.524 -9.4852,-6.697 -11.9575,-10.681 -0.48,-0.77 -0.9242,-1.537 -1.3,-2.294 -0.0789,-0.146 -0.1554,-0.3 -0.2293,-0.454" /><path
       inkscape:connector-curvature="0"
       id="path4231"
       style="fill:#0377af;fill-opacity:1;fill-rule:nonzero;stroke:none;stroke-width:0.1"
       d="m 32.6207,131.621 c -0.6691,0.817 -1.5539,2.058 -1.6144,4.146 0.0054,0.313 -0.059,1.602 -0.059,3.01 0,1.083 0.0386,2.287 0.1965,3.523 0.2199,1.243 0.3113,2.471 1.5382,4.125 0.6071,0.736 1.0625,1.316 1.6907,1.964 0.0711,0.06 0.1222,0.118 0.2015,0.184 0,0 0.3145,5.609 4.8446,17.408 H 7.72578 v -44.21 c 4.23752,1.406 14.57382,4.645 24.89492,6.375 v 3.475" /><path
       inkscape:connector-curvature="0"
       id="path4233"
       style="fill:#0377af;fill-opacity:1;fill-rule:nonzero;stroke:none;stroke-width:0.1"
       d="m 86.9086,114.084 c 1.3441,0.94 2.5621,1.757 3.6676,2.465 2.0797,1.328 3.6992,2.23 4.6875,2.752 0.6914,0.369 1.0758,0.546 1.0758,0.546 -3.8727,-1.661 -7.5563,-3.517 -11.0598,-5.532 C 48.5094,93.2781 30.9301,55.0391 24.5957,37.841 24.577,37.8059 24.5652,37.7648 24.552,37.7332 c 0,-0.0102 0,-0.0102 0.005,-0.0102 0.1664,-0.1789 0.3344,-0.3582 0.5035,-0.5308 0.2094,-0.2352 0.4243,-0.4613 0.6434,-0.682 0.0055,-0.0231 0.0203,-0.0313 0.0309,-0.043 0.0562,-0.0621 0.1074,-0.1082 0.1476,-0.1633 0.1586,-0.159 0.3168,-0.3301 0.4754,-0.4828 0.1844,-0.1973 0.3828,-0.4012 0.5824,-0.6109 0.0539,-0.0422 0.0996,-0.1 0.1582,-0.1692 0.0516,-0.0398 0.0973,-0.091 0.1481,-0.1469 0.1281,-0.123 0.2555,-0.2562 0.3828,-0.3691 0.1922,-0.1961 0.3762,-0.393 0.5777,-0.5879 0.1192,-0.1172 0.2403,-0.2301 0.3571,-0.3609 h 0.0105 c 0.159,-0.1512 0.3168,-0.3114 0.4805,-0.4723 0.375,-0.357 0.7512,-0.723 1.1308,-1.0898 0.1586,-0.1532 0.3145,-0.3032 0.4782,-0.4512 0.4703,-0.4598 0.9597,-0.9141 1.466,-1.3731 0.184,-0.1589 0.3547,-0.3117 0.5304,-0.4898 0.5399,-0.4828 1.0907,-0.982 1.6559,-1.473 0.7711,-0.6692 1.5524,-1.359 2.3594,-2.034 0.0055,0 0.0055,0 0.0055,0 v 0 c 7.9476,51.405 35.5113,77.399 50.2273,87.891" /><path
       inkscape:connector-curvature="0"
       id="path4235"
       style="fill:#0377af;fill-opacity:1;fill-rule:nonzero;stroke:none;stroke-width:0.1"
       d="m 93.3324,148.557 c 0,-0.016 0,-0.05 0,-0.062 0.1305,-0.106 0.2836,-0.258 0.4219,-0.384 0.5051,-0.531 0.9238,-1.054 1.4504,-1.686 0.243,-0.333 0.4336,-0.64 0.5891,-0.936 0.0339,-0.058 0.0445,-0.108 0.0753,-0.155 0.2469,-0.549 0.4059,-1.107 0.5465,-1.804 0.2731,-1.382 0.4699,-3.374 0.4903,-6.719 -0.0164,-0.507 -0.0309,-0.888 -0.0309,-1.044 -0.0094,-0.515 -0.082,-0.988 -0.184,-1.418 -0.0023,0 -0.0023,-0.009 -0.0023,-0.016 -0.0996,-0.397 -0.2301,-0.756 -0.3739,-1.079 -0.0121,-0.031 -0.0226,-0.049 -0.032,-0.069 -0.3062,-0.666 -0.682,-1.161 -1.0125,-1.564 v -3.905 c 0.0418,-0.015 0.0809,-0.015 0.1238,-0.02 v -0.02 c 4.9089,-1.163 14.9209,-3.703 24.3769,-7.12 v 45.425 H 88.4719 v 0 c 4.5215,-11.799 4.8472,-17.408 4.8472,-17.408 0,0 0.0055,-0.007 0.0133,-0.016" /><path
       inkscape:connector-curvature="0"
       id="path4237"
       style="fill:#0e2b58;fill-opacity:1;fill-rule:nonzero;stroke:none;stroke-width:0.1"
       d="m 119.771,112.328 v 3.564 c -0.027,-0.018 -0.054,-0.04 -0.083,-0.04 -0.043,0 -0.091,0.021 -0.132,0.04 -3.618,1.359 -7.392,2.585 -10.981,3.665 C 59.1621,89.1672 63.7285,11.1582 63.9488,7.86992 98.2055,26.6801 111.612,47.693 115.785,54.3699 c 4.327,6.9321 3.986,16.7821 3.986,16.7821 v 41.176" /><path
       inkscape:connector-curvature="0"
       id="path4239"
       style="fill:#0e2b58;fill-opacity:1;fill-rule:nonzero;stroke:none;stroke-width:0.1"
       d="m 59.7395,165.97 c 0,0 0,0 0,0.011 0.048,1.212 0.4082,8.04 2.3289,12.88 0.2246,0.546 0.4504,1.051 0.7004,1.531 0.2933,0.552 0.6121,1.062 0.9652,1.492 0,0 0.2426,-0.153 0.6027,-0.682 0.3735,-0.544 0.8781,-1.453 1.3789,-2.964 0.8149,-2.351 1.6344,-6.173 2.0051,-12.257 0,-0.011 0,-0.011 0,-0.011 0,-0.076 0.0078,-0.14 0.0129,-0.202 0,0 -0.4731,0.105 -1.2926,0.202 -1.1695,0.118 -3.0601,0.224 -5.2945,0 -0.4602,-0.064 -0.9223,-0.119 -1.407,-0.202 0,0 0,0.072 0,0.202 z m 3.8898,28.102 c 0,0 -2.4906,-0.033 -2.4906,-1.879 v -3.035 c 0,0 -2.1481,-0.588 -2.1481,-1.942 0,-0.413 0,-1.206 0,-4.924 l 0.0074,-0.416 v -0.034 c -0.9238,-0.317 -1.9257,-0.706 -2.9621,-1.194 -1.2339,-0.511 -2.5957,-1.359 -3.9437,-2.325 -0.1227,-0.124 -0.2324,-0.244 -0.3625,-0.354 -0.0356,-0.039 -0.0766,-0.071 -0.1223,-0.1 l -0.0179,-0.056 c -3.9411,-3.686 -6.5872,-7.836 -8.0883,-11.832 -0.6313,-1.697 -1.061,-3.358 -1.2824,-4.931 -0.2176,-0.15 -0.5364,-0.36 -0.9399,-0.615 -0.7894,-0.491 -0.716,-2.172 -0.716,-2.172 0.1074,0.075 0.2203,0.147 0.3273,0.22 1.0856,0.711 2.3039,1.353 3.6071,1.916 7.1609,3.036 16.7922,3.777 19.2414,3.915 2.4261,-0.138 11.8636,-0.859 19.0019,-3.823 1.3848,-0.577 2.6848,-1.241 3.8418,-2.008 0.0996,-0.061 0.2219,-0.132 0.3219,-0.215 l 0.0152,-0.005 h 0.0051 l -0.0051,0.005 c 0.0051,0.07 0.0567,1.681 -0.7183,2.167 -0.416,0.265 -0.7371,0.478 -0.9399,0.622 -0.2218,1.577 -0.6613,3.227 -1.289,4.924 -1.5535,4.167 -4.3676,8.535 -8.5977,12.342 -1.5578,1.129 -3.1488,2.106 -4.5226,2.559 0.2296,-0.218 0.482,-0.416 0.7304,-0.653 2.4492,-2.227 5.5239,-5.8 7.1074,-10.972 0.2067,-0.66 0.3676,-1.354 0.529,-2.078 0.0792,-0.405 0.1613,-0.793 0.2214,-1.198 0.1465,-0.883 0.2457,-1.79 0.2871,-2.746 -1.5277,0.528 -3.0878,0.941 -4.6082,1.296 -0.0308,0.423 -0.0816,0.974 -0.1328,1.45 -0.0144,0.171 -0.0347,0.326 -0.0508,0.466 -0.5046,3.498 -1.7523,6.789 -3.2226,9.494 -0.0645,0.105 -0.125,0.196 -0.184,0.301 -1.4973,2.669 -3.2027,4.728 -4.5848,5.751 h 1.3258 v 0.116 c 0,0.398 0,1.146 0,1.973 0,1.107 0,2.374 0,3.134 0,1.354 -2.1527,1.942 -2.1527,1.942 v 3.035 c 0,1.846 -2.4879,1.879 -2.4879,1.879 l 0.0074,-0.156" /><path
       inkscape:connector-curvature="0"
       id="path4241"
       style="fill:#0e2b58;fill-opacity:1;fill-rule:nonzero;stroke:none;stroke-width:0.1"
       d="m 85.7852,155.92 c -0.3981,0.236 -0.8247,0.479 -1.2614,0.705 -0.5058,0.27 -1.0265,0.537 -1.5734,0.796 -6.4777,2.829 -15.1191,3.449 -18.8336,3.532 v 0.022 c -0.1117,0 -0.2445,0 -0.3781,0 -0.1231,0 -0.2653,0 -0.3809,0 v -0.022 c -3.7031,-0.083 -12.3668,-0.703 -18.8351,-3.532 -0.6336,-0.292 -1.2313,-0.605 -1.8059,-0.92 -0.3508,-0.194 -0.6973,-0.376 -1.0344,-0.581 -0.307,-0.209 -0.6054,-0.413 -0.8941,-0.629 -0.1328,-0.086 -0.2578,-0.192 -0.3836,-0.279 -1.2942,-1.033 -1.9688,-2.174 -1.9102,-2.922 l -0.0074,-0.004 c 0,-0.012 -0.0137,-0.511 0.4012,-0.682 0.0863,-0.045 0.184,-0.077 0.3113,-0.077 0,0 0,0 0.0047,0 h 0.0051 c 0.0539,0 0.8355,0 1.2801,0 l -0.1204,-3.688 h 0.0055 c -0.4629,-0.249 -0.9273,-0.491 -1.3867,-0.753 -0.0332,-0.011 -0.0715,-0.042 -0.0996,-0.054 -1.4098,-0.811 -3.3004,-2.207 -3.4738,-3.927 0,0 0.0097,-0.052 0.0097,-0.079 0,0 0,-0.032 0,-0.059 0,0 0,0 0,-0.006 0,-0.026 0,-0.026 0,-0.026 0,-0.022 0,-0.028 0.0055,-0.039 0,-0.047 0,-0.063 0.0101,-0.097 v -0.016 c 0.0055,-0.011 0.0055,-0.031 0.0075,-0.052 0.0078,-0.034 0.0132,-0.055 0.0211,-0.072 v 0 c 0.0121,-0.025 0.0121,-0.041 0.0121,-0.07 0.0105,-0.009 0.0207,-0.037 0.0207,-0.057 0.0105,-0.012 0.016,-0.027 0.0304,-0.032 l 0.0055,-0.012 c 0,-0.022 0.0149,-0.054 0.0199,-0.074 0.02,0 0.0309,-0.021 0.0364,-0.03 0.0203,0 0.0375,-0.02 0.0589,-0.036 0.0122,-0.015 0.0231,-0.015 0.0325,-0.025 0.0215,-0.006 0.0457,-0.011 0.0718,-0.022 0.0129,0 0.0207,0 0.0383,0 0.043,-0.019 0.0895,0 0.136,0.016 0.0652,0.016 0.1351,0.016 0.1914,0.016 0.8273,0.58 1.6746,1.127 2.5355,1.622 9.9887,5.835 21.5539,6.235 24.7,6.213 v -0.004 c 0.0797,0 0.2227,0.004 0.3809,0.004 0.1633,0 0.2918,-0.004 0.3781,-0.004 v 0.004 c 3.1027,0.022 14.3891,-0.369 24.284,-5.971 1.0109,-0.562 1.993,-1.188 2.9527,-1.864 0.0563,0 0.1168,0 0.1934,-0.016 0.0414,-0.016 0.0875,-0.035 0.1383,-0.016 0.0136,0 0.0199,0 0.0375,0 0.0296,0.011 0.05,0.016 0.0644,0.022 0.0281,0.01 0.0309,0.01 0.0457,0.025 0,0.011 0.011,0.011 0.011,0.011 0.0109,0.005 0.0253,0.025 0.0308,0.025 0.0145,0.009 0.0199,0.03 0.0336,0.03 0.0172,0.02 0.032,0.052 0.0453,0.074 0.0031,0.012 0.0082,0.032 0.0082,0.044 h 0.0094 c 0,0.02 0.023,0.048 0.0309,0.057 0,0.029 0.0054,0.045 0.0054,0.07 v 0 c 0.0176,0.017 0.0176,0.038 0.0176,0.072 0.0078,0.021 0.0078,0.041 0.0078,0.052 0,0 0,0.016 0.0067,0.016 0,0.034 0,0.05 0.0136,0.097 0,0 0.0055,0.017 0.0055,0.039 0,0 0,0 0,0.026 0,0.006 0,0.006 0,0.006 0,0.027 0,0.032 0,0.032 0,0.054 0,0.086 0,0.086 -0.1641,1.74 -2.0691,3.136 -3.4742,3.947 -0.0254,0.012 -0.0563,0.043 -0.0922,0.054 -0.9442,0.532 -1.9047,1.009 -2.8754,1.439 -0.7152,0.325 -1.4406,0.634 -2.1656,0.918 v -0.016 l -3.193,1.129 c -7.693,2.342 -14.6699,2.342 -16.5195,2.282 -0.5715,0.028 -1.6137,0.028 -3.0141,-0.025 v 5.687 h 0.7899 l 2.1601,-0.802 2.1434,0.867 h 0.7711 v -4.341 c 1.3328,-0.076 2.6156,-0.188 3.8441,-0.327 v 3.223 l 2.9551,0.813 1.7797,-1.345 v -3.428 c 1.2484,-0.242 2.3933,-0.525 3.4683,-0.811 v 1.926 l 3.0063,1.248 1.8086,-1.35 v -3.327 c 1.0726,-0.397 1.889,-0.739 2.4922,-1.002 0.0765,-0.045 0.164,-0.084 0.2402,-0.12 0.2766,-0.124 0.5523,-0.243 0.8246,-0.388 l -0.032,2.191 c 0.4386,0 1.2047,0 1.2461,0 0.009,0 0.0304,0 0.0398,0 h 0.0082 c 0.0125,0 0.0231,0 0.0395,0.018 0.1113,0 0.1984,0.03 0.2746,0.071 0.1453,0.079 0.2433,0.197 0.2969,0.31 0.3882,0.684 -0.2817,2.061 -1.8086,3.286 -0.0645,0.044 -0.1379,0.087 -0.2039,0.146 -0.3477,0.267 -0.7004,0.514 -1.0836,0.762" /><path
       inkscape:connector-curvature="0"
       id="path4243"
       style="fill:#0e2b58;fill-opacity:1;fill-rule:nonzero;stroke:none;stroke-width:0.1"
       d="m 61.1055,141.439 c 1.75,0.093 3.4945,0.093 5.2418,0.007 v -13.915 c -1.6887,0.04 -3.441,0.049 -5.2418,0.008 z m 10.305,-0.516 v 0.335 c 1.6958,-0.264 3.4032,-0.592 5.0907,-1.038 v -13.274 c -0.8918,0.099 -1.8008,0.172 -2.7407,0.24 v 8.685 c 0,0 -0.1839,1.423 -2.35,1.423 z m 10.5208,-2.752 v 0.799 c 1.5175,-0.576 3.016,-1.209 4.5078,-1.918 v -11.424 c -0.8168,0.14 -1.6852,0.295 -2.6203,0.432 v 7.876 c 0,0 0.046,1.5 -1.8875,1.5 z m -5.9848,-22.814 c 4.2508,2.252 8.3625,4.247 12.2394,6.001 0.1746,0.091 0.345,0.163 0.5114,0.23 1.6007,0.736 3.1465,1.396 4.6472,2.023 0.2918,0.132 0.5942,0.255 0.8743,0.368 -0.1434,0.042 -1.3024,0.359 -3.2774,0.786 v 8.628 c 0,0 0.0238,0.021 0.0805,0.05 -0.1317,0.057 -0.1492,0.088 0.0062,0.134 0.1227,0.031 0.2516,0.097 0.3817,0.177 0.6742,0.612 1.7254,1.945 0.7656,3.737 -0.0094,0.013 -0.0199,0.029 -0.0199,0.039 -0.2864,0.477 -0.6438,0.95 -1.0598,1.395 -0.7234,0.654 -1.559,1.246 -2.4398,1.8 -4.3344,2.685 -10.2039,4.158 -15.3192,4.948 -3.0137,0.403 -6.1504,0.633 -9.2199,0.714 h -0.759 c -3.0801,-0.081 -6.2058,-0.311 -9.2273,-0.714 -5.1817,-0.811 -11.1457,-2.315 -15.4875,-5.067 -0.8231,-0.515 -1.5832,-1.076 -2.268,-1.681 -0.4164,-0.455 -0.7871,-0.929 -1.0648,-1.434 -0.0133,-0.021 -0.0133,-0.03 -0.0215,-0.043 -0.9317,-1.755 0.1101,-3.099 0.7773,-3.694 0.1344,-0.08 0.2633,-0.146 0.3856,-0.177 0.1531,-0.046 0.1379,-0.077 0.0074,-0.134 0.0465,-0.029 0.0894,-0.05 0.0894,-0.05 v -8.619 C 21.8785,122.359 10.8906,118.748 7.87188,117.689 l -0.1461,-0.028 V 72.2238 c 0,0 -0.11445,-8.3769 2.58162,-14.8297 C 26.0895,84 53.0375,103.256 75.9465,115.357" /></g></svg>